<svg id="Layer_1" enable-background="new 0 0 512.002 512.002" height="512" viewBox="0 0 512.002 512.002" width="512" xmlns="http://www.w3.org/2000/svg"><g><g><path d="m486.001 35c0-19.299-15.701-35-35-35h-390c-19.299 0-35 15.701-35 35 0 15.824 10.56 29.223 25 33.537v167.468c0 5.522 4.478 10 10 10s10-4.478 10-10v-166.005h124.998v88.055c-24.272 18.262-39.998 47.302-39.998 79.948s15.726 61.686 39.998 79.948v113.588l-124.998 55.124v-160.658c0-5.522-4.478-10-10-10s-10 4.478-10 10v175.997c0 3.38 1.707 6.531 4.539 8.377 2.831 1.846 6.403 2.137 9.496.772l190.965-84.215 190.965 84.215c1.291.569 2.665.851 4.034.851 1.911 0 3.813-.548 5.462-1.623 2.832-1.846 4.539-4.997 4.539-8.377v-433.465c14.44-4.314 25-17.713 25-33.537zm-270.002 35h80.004v76.362c-12.257-5.371-25.786-8.359-40.002-8.359s-27.745 2.988-40.002 8.359zm-39.998 168.003c0-44.112 35.888-80 80-80s80 35.888 80 80-35.888 80-80 80-80-35.888-80-80zm75.965 168.854-35.967 15.861v-93.075c12.257 5.371 25.786 8.359 40.002 8.359s27.745-2.988 40.002-8.359v93.075l-35.967-15.861c-2.57-1.134-5.5-1.134-8.07 0zm64.037 24.682v-113.588c24.272-18.262 39.998-47.302 39.998-79.948s-15.726-61.686-39.998-79.948v-88.055h124.998v416.663zm134.998-381.539h-390c-8.271 0-15-6.729-15-15s6.729-15 15-15h390c8.271 0 15 6.729 15 15s-6.729 15-15 15z"/><path d="m213.858 251.971-2.496 19.031c-.713 3.925-.15 8.036 1.599 11.627 2.204 4.526 6.04 7.925 10.801 9.567 2.016.694 4.094 1.04 6.164 1.04 2.821 0 5.627-.641 8.237-1.912l17.635-8.584 18.163 8.653c3.319 1.583 7.021 2.154 10.693 1.641 10.288-1.423 17.501-10.951 16.077-21.255l-2.718-19.449 13.307-14.035c2.875-2.784 4.754-6.335 5.442-10.288 1.788-10.24-5.088-20.026-15.304-21.81l-19.327-3.423-9.604-17.668c-.001-.001-.001-.001-.002-.002-1.762-3.238-4.415-5.869-7.676-7.609-9.158-4.885-20.583-1.408-25.472 7.755l-9.227 17.321-19.369 3.601c-3.799.61-7.27 2.344-10.05 5.019-3.626 3.488-5.677 8.179-5.774 13.209s1.771 9.797 5.266 13.432zm24.683-30.616c2.992-.557 5.568-2.444 6.999-5.131l10.463-19.642 10.857 19.975c1.454 2.674 4.046 4.54 7.042 5.07l21.971 3.892-15.687 16.545c-2.094 2.208-3.068 5.25-2.646 8.264l3.086 22.087-20.574-9.802c-1.36-.647-2.831-.972-4.301-.972-1.498 0-2.995.336-4.377 1.009l-20.023 9.746 2.964-22.601c.396-3.017-.604-6.05-2.716-8.241l-15.462-16.035z"/><path d="m61.001 291.009c5.522 0 10-4.478 10-10v-.008c0-5.522-4.478-9.996-10-9.996s-10 4.481-10 10.004 4.478 10 10 10z"/></g></g></svg>