<?xml version="1.0" encoding="UTF-8"?>
<svg xmlns="http://www.w3.org/2000/svg" id="Layer_3" data-name="Layer 3" viewBox="0 0 64 64" width="512" height="512"><rect x="15" y="53" width="8" height="2"/><path d="M27,21.184V21a8,8,0,0,0-4-6.918V13a4,4,0,0,0-8,0v1.082A8,8,0,0,0,11,21v.184A2.993,2.993,0,0,0,12,27H26a2.993,2.993,0,0,0,1-5.816ZM17,13a2,2,0,0,1,4,0v.263a7.736,7.736,0,0,0-4,0Zm2,2a6.006,6.006,0,0,1,6,6H13A6.006,6.006,0,0,1,19,15Zm7,10H12a1,1,0,0,1,0-2H26a1,1,0,0,1,0,2Z"/><path d="M62.707,18.293,49.979,5.565a1,1,0,0,0-1.414,0l-7.071,7.072a1,1,0,0,0,0,1.414l.707.707L41.08,15.879H37V6a5.006,5.006,0,0,0-5-5H6A5.006,5.006,0,0,0,1,6V58a5.006,5.006,0,0,0,5,5H32a5.006,5.006,0,0,0,5-5V35.012l1.666,1.666,2.828,2.828a1,1,0,0,0,1.414,0l7.779-7.777a1.011,1.011,0,0,0,.241-.391l1.34-4.02,1.247-1.247.707.707a1,1,0,0,0,1.414,0l7.071-7.071A1,1,0,0,0,62.707,18.293ZM32,61H6a3,3,0,0,1-3-3V6A3,3,0,0,1,6,3H32a3,3,0,0,1,3,3V16.3l-2,2V6a1,1,0,0,0-1-1H6A1,1,0,0,0,5,6V58a1,1,0,0,0,1,1H32a1,1,0,0,0,1-1V32.443l.715-.715L35,33.013V58A3,3,0,0,1,32,61ZM23.109,35.264l2.829,2.828a.923.923,0,0,0,1,.236A.994.994,0,0,1,26,39H12a1,1,0,0,1-1-1V34a1,1,0,0,1,1-1H23.959l-.85.85A1,1,0,0,0,23.109,35.264ZM25.959,31H12a3,3,0,0,0-3,3v4a3,3,0,0,0,3,3H26a3,3,0,0,0,3-3V36.443l2-2V57H7V7H31V20.3l-.819.819a1,1,0,0,0,0,1.414L32.3,24.657Zm24.728-4.929a.983.983,0,0,0-.242.391l-1.34,4.019-6.9,6.9-1.414-1.414,3.535-3.535-1.414-1.415-3.535,3.536-1.415-1.414,3.536-3.537L40.08,28.192l-3.536,3.537L35.13,30.314l3.535-3.536-1.414-1.414L26.645,35.971,25.23,34.557l9.193-9.193,2.828-2.828-1.414-1.414-2.121,2.121L32.3,21.829l3.949-3.95h5.243a1,1,0,0,0,.707-.293l1.414-1.414L52.1,24.657Zm4.242-1.414L43.615,13.344l5.657-5.657L60.586,19Z"/></svg>
