<svg id="Layer_1" enable-background="new 0 0 512.001 512.001" height="512" viewBox="0 0 512.001 512.001" width="512" xmlns="http://www.w3.org/2000/svg"><g><g><path d="m512.001 452v-310c0-5.523-4.477-10-10-10h-116.026c.01-.666.025-1.331.025-2 0-71.683-58.318-130-130-130s-130 58.318-130 130c0 .668.015 1.333.025 2h-116.024c-5.523 0-10 4.477-10 10v310c0 5.523 4.477 10 10 10v30.001c-5.523 0-10 4.477-10 10s4.477 10 10 10h492c5.523 0 10-4.477 10-10s-4.477-10-10-10v-30.001c5.523 0 10-4.477 10-10zm-20-300v290h-206.001c-7.283 0-14.111 1.965-20 5.379v-187.76c59.673-4.561 108.196-49.588 118.13-107.619zm-236-132c60.654 0 110 49.346 110 110s-49.346 110-110 110-110-49.346-110-110 49.345-110 110-110zm-226 442h42.997c5.523 0 10-4.477 10-10s-4.477-10-10-10h-52.997v-290h107.871c9.933 58.031 58.457 103.058 118.129 107.619v187.76c-5.888-3.415-12.717-5.38-20-5.38h-63.003c-5.523 0-10 4.477-10 10s4.477 10 10 10h63.003c11.028 0 20 8.972 20 20v10.001h-216v-30zm451.999 0v30.001h-216v-10.001c0-11.028 8.972-20 20-20z"/><path d="m256.001 220c49.626 0 90-40.374 90-90s-40.374-90-90-90-90 40.374-90 90 40.374 90 90 90zm0-160c38.598 0 70 31.402 70 70s-31.402 70-70 70-70-31.402-70-70 31.402-70 70-70z"/><path d="m244.914 160c-5.523 0-10 4.477-10 10s4.477 10 10 10h22.173c5.523 0 10-4.477 10-10s-4.477-10-10-10h-1.086v-70c0-3.573-1.906-6.874-5-8.66-3.093-1.786-6.905-1.786-10 0l-11.087 6.401c-4.783 2.761-6.422 8.877-3.66 13.66 2.044 3.541 5.928 5.36 9.747 4.943v53.656z"/><path d="m215.999 407.714c0-5.523-4.477-10-10-10h-155.997c-5.523 0-10 4.477-10 10s4.477 10 10 10h155.997c5.523 0 10-4.477 10-10z"/><path d="m50.002 373.429h155.997c5.523 0 10-4.477 10-10s-4.477-10-10-10h-155.997c-5.523 0-10 4.477-10 10s4.477 10 10 10z"/><path d="m50.002 329.143h155.997c5.523 0 10-4.477 10-10s-4.477-10-10-10h-155.997c-5.523 0-10 4.477-10 10s4.477 10 10 10z"/><path d="m50.002 284.857h117.5c5.523 0 10-4.477 10-10s-4.477-10-10-10h-117.5c-5.523 0-10 4.477-10 10s4.477 10 10 10z"/><path d="m50.002 240.572h66.5c5.523 0 10-4.477 10-10s-4.477-10-10-10h-66.5c-5.523 0-10 4.477-10 10s4.477 10 10 10z"/><path d="m50.002 196.286h39c5.523 0 10-4.477 10-10s-4.477-10-10-10h-39c-5.523 0-10 4.477-10 10s4.477 10 10 10z"/><path d="m461.999 397.714h-155.997c-5.523 0-10 4.477-10 10s4.477 10 10 10h155.997c5.523 0 10-4.477 10-10s-4.477-10-10-10z"/><path d="m461.999 353.429h-155.997c-5.523 0-10 4.477-10 10s4.477 10 10 10h155.997c5.523 0 10-4.477 10-10s-4.477-10-10-10z"/><path d="m461.999 309.143h-155.997c-5.523 0-10 4.477-10 10s4.477 10 10 10h155.997c5.523 0 10-4.477 10-10s-4.477-10-10-10z"/><path d="m461.999 264.857h-117.499c-5.523 0-10 4.477-10 10s4.477 10 10 10h117.499c5.523 0 10-4.477 10-10s-4.477-10-10-10z"/><path d="m395.5 240.572h66.499c5.523 0 10-4.477 10-10s-4.477-10-10-10h-66.499c-5.523 0-10 4.477-10 10s4.477 10 10 10z"/><path d="m423 196.286h38.999c5.523 0 10-4.477 10-10s-4.477-10-10-10h-38.999c-5.523 0-10 4.477-10 10s4.477 10 10 10z"/><path d="m118.001 442h-.007c-5.523 0-9.996 4.477-9.996 10s4.48 10 10.003 10 10-4.477 10-10-4.477-10-10-10z"/></g></g></svg>