<svg id="Layer_1" enable-background="new 0 0 512.001 512.001" height="512" viewBox="0 0 512.001 512.001" width="512" xmlns="http://www.w3.org/2000/svg"><g><g><path d="m462.001 0h-332.001c-27.57 0-50 22.43-50 50v322h-70c-5.523 0-10 4.478-10 10v19.999c0 27.57 22.43 50 50 50h170.866v50.002c0 3.466 1.794 6.685 4.743 8.507 1.606.992 3.429 1.493 5.258 1.493 1.528 0 3.06-.35 4.472-1.056l20.662-10.33 20.662 10.33c3.101 1.551 6.782 1.384 9.729-.438 2.948-1.822 4.743-5.041 4.743-8.507v-50.002h90.675c.12.001.237.001.357.001 13.177 0 25.6-5.137 35.016-14.486 9.556-9.489 14.819-22.102 14.819-35.515v-322h70c5.523 0 10-4.477 10-10v-19.999c-.001-27.569-22.431-49.999-50.001-49.999zm-442.001 401.999v-9.999h60v9.999c0 16.542-13.458 30-30 30s-30-13.458-30-30zm235.973-78.844 13.418 24.683c1.453 2.673 4.045 4.54 7.042 5.07l27.196 4.799c-.15.14-.295.284-.436.433l-18.956 19.994c-2.094 2.208-3.068 5.25-2.647 8.264l3.845 27.317-25.417-12.108c-2.748-1.308-5.941-1.296-8.678.037l-24.787 12.082c.049-.237.089-.476.12-.715l3.568-27.202c.396-3.018-.604-6.051-2.716-8.241l-19.178-19.822c.113-.017.226-.036.338-.057l27.368-5.086c2.992-.557 5.568-2.444 6.999-5.13zm4.5 157.335c-2.815-1.408-6.129-1.408-8.944 0l-10.662 5.331v-56.836l14.898-7.252 15.37 7.323v56.765zm151.529-78.491c0 8.044-3.165 15.617-8.911 21.323-5.641 5.601-13.064 8.678-20.995 8.678-.071 0-.144-.001-.215-.001h-88.404c3.084-1.352 5.795-3.463 7.883-6.223 3.22-4.254 4.591-9.509 3.858-14.808l-3.154-22.569 15.466-16.313c3.058-2.954 5.058-6.726 5.792-10.931 1.895-10.859-5.397-21.236-16.232-23.128l-22.428-3.973-11.138-20.489c0-.001-.001-.003-.002-.004-1.869-3.435-4.684-6.224-8.139-8.066-4.705-2.51-10.105-3.035-15.205-1.484-5.101 1.553-9.292 4.999-11.803 9.707l-10.708 20.101-22.493 4.181c-4.03.647-7.715 2.485-10.668 5.324-3.845 3.699-6.019 8.673-6.123 14.008-.104 5.334 1.876 10.39 5.583 14.241l15.82 16.409-2.902 22.128c-.779 4.223-.198 8.488 1.689 12.363 2.093 4.298 5.578 7.625 9.906 9.526h-128.506c6.292-8.363 10.027-18.752 10.027-30v-351.999c0-16.542 13.458-30 30-30s30 13.458 30 30v19.999c0 2.652 1.053 5.195 2.929 7.071 1.875 1.875 4.419 2.929 7.071 2.929h242.002zm79.999-342h-312.001v-9.999c0-11.246-3.733-21.638-10.023-30h292.024c16.542 0 30 13.458 30 30z"/><path d="m244.914 166.18c-5.523 0-10 4.478-10 10s4.477 10 10 10h22.173c5.523 0 10-4.478 10-10s-4.477-10-10-10h-1.086v-49.998c0-3.572-1.906-6.874-5-8.66-3.093-1.786-6.905-1.787-9.999 0l-11.087 6.4c-4.783 2.761-6.422 8.877-3.661 13.66 2.044 3.54 5.926 5.36 9.748 4.943v33.654h-1.088z"/><path d="m124.875 226.182c0 5.522 4.477 10 10 10h242.25c5.523 0 10-4.478 10-10s-4.477-10-10-10h-242.25c-5.523 0-10 4.477-10 10z"/><path d="m377.125 256.183h-76.128c-5.523 0-10 4.478-10 10s4.477 10 10 10h76.128c5.523 0 10-4.478 10-10s-4.477-10-10-10z"/><path d="m210.997 256.183h-76.122c-5.523 0-10 4.478-10 10s4.477 10 10 10h76.122c5.523 0 10-4.478 10-10s-4.477-10-10-10z"/><path d="m256.001 256.183h-.008c-5.523 0-9.996 4.478-9.996 10s4.481 10 10.004 10 10-4.478 10-10-4.477-10-10-10z"/></g></g></svg>